<svg id="Capa_1" data-name="Capa 1" xmlns="http://www.w3.org/2000/svg" viewBox="0 0 300 300"><defs><style>.cls-1{fill:#00a096;}</style></defs><path class="cls-1" d="M243.42,182.51,243,182a45.07,45.07,0,0,1,0-63.67,44.25,44.25,0,0,0,12.91-28.68,42.64,42.64,0,0,0-9.66-29.83A43.31,43.31,0,0,0,182.3,56.8l-.47.46a45.07,45.07,0,0,1-63.67,0A44.32,44.32,0,0,0,89.48,44.34,42.58,42.58,0,0,0,59.65,54a43.31,43.31,0,0,0-3.07,63.9l.47.47a45.07,45.07,0,0,1,0,63.66l-.47.47a43.34,43.34,0,0,0,.07,61.19c1,.94,2,1.86,3,2.72a42.62,42.62,0,0,0,29.84,9.66,44.27,44.27,0,0,0,28.68-12.91h0a45.06,45.06,0,0,1,63.67,0,44.27,44.27,0,0,0,28.68,12.91,42.64,42.64,0,0,0,29.83-9.66,43.32,43.32,0,0,0,3.07-63.91Z"/></svg>