<?xml version="1.0" encoding="UTF-8"?> <svg xmlns="http://www.w3.org/2000/svg" width="400" height="500" viewBox="0 0 400 500" fill="none"><path d="M309.688 219.189C309.688 208.32 300.74 199.423 289.81 199.423H108.289C97.3587 199.423 88.4109 208.32 88.4109 219.189V391.415C88.4109 418.593 110.774 440.816 138.093 440.816H259.993C287.325 440.816 309.675 418.58 309.675 391.415V374.62V219.189H309.688Z" fill="#EA8CD2"></path><path d="M296.277 225.394C296.277 218.46 290.777 212.834 283.999 212.834C277.22 212.834 271.72 218.46 271.72 225.394C271.72 229.131 273.321 232.473 275.852 234.771C274.522 277.297 240.204 311.358 198.359 311.12C156.965 310.883 123.267 277.139 121.744 235.22C124.571 232.922 126.379 229.382 126.379 225.407C126.379 218.473 120.878 212.847 114.1 212.847C107.322 212.847 101.822 218.473 101.822 225.407C101.822 229.356 103.616 232.882 106.405 235.18C107.929 285.736 148.431 326.533 198.268 326.823C248.338 327.114 289.434 286.423 291.164 235.576C294.25 233.291 296.264 229.593 296.264 225.407L296.277 225.394Z" fill="white"></path><path d="M199.993 93.0299C196.28 93.0299 193.259 90.0094 193.259 86.2958V66.7341C193.259 63.0075 196.28 60 199.993 60C203.707 60 206.727 63.0206 206.727 66.7341V86.2958C206.727 90.0094 203.707 93.0299 199.993 93.0299Z" fill="#FFCB03"></path><path d="M318.266 191.74H298.704C294.991 191.74 291.97 188.72 291.97 185.006C291.97 181.293 294.991 178.272 298.704 178.272H318.266C321.993 178.272 325 181.293 325 185.006C325 188.72 321.993 191.74 318.266 191.74Z" fill="#FFCB03"></path><path d="M101.296 191.74H81.7341C78.0074 191.74 75 188.72 75 185.006C75 181.293 78.0074 178.272 81.7341 178.272H101.296C105.009 178.272 108.03 181.293 108.03 185.006C108.03 188.72 105.009 191.74 101.296 191.74Z" fill="#FFCB03"></path><path d="M130.207 121.941C128.481 121.941 126.768 121.287 125.447 119.967L111.613 106.132C108.985 103.504 108.985 99.2411 111.613 96.6128C114.241 93.9845 118.504 93.9845 121.132 96.6128L134.966 110.447C137.595 113.075 137.595 117.338 134.966 119.967C133.646 121.274 131.933 121.941 130.207 121.941Z" fill="#FFCB03"></path><path d="M269.792 121.941C268.066 121.941 266.353 121.287 265.032 119.967C262.404 117.338 262.404 113.075 265.032 110.447L278.867 96.6128C281.495 93.9845 285.758 93.9845 288.399 96.6128C291.028 99.2411 291.028 103.504 288.399 106.132L274.565 119.967C273.244 121.274 271.531 121.941 269.805 121.941" fill="#FFCB03"></path><path d="M162.23 100.548C159.588 100.548 157.078 98.979 156.005 96.39L148.513 78.3059C147.088 74.8669 148.722 70.9311 152.161 69.5058C155.6 68.0805 159.536 69.715 160.961 73.154L168.454 91.2381C169.879 94.677 168.245 98.6129 164.806 100.038C163.956 100.391 163.093 100.548 162.23 100.548Z" fill="#FFCB03"></path><path d="M291.198 153.977C288.557 153.977 286.047 152.408 284.974 149.819C283.549 146.38 285.184 142.444 288.623 141.019L306.707 133.526C310.146 132.101 314.081 133.735 315.507 137.174C316.932 140.613 315.298 144.549 311.859 145.974L293.774 153.467C292.925 153.82 292.061 153.977 291.198 153.977Z" fill="#FFCB03"></path><path d="M108.802 153.965C107.939 153.965 107.063 153.808 106.226 153.455L88.1418 145.962C84.7159 144.537 83.0814 140.601 84.4936 137.162C85.9189 133.736 89.8548 132.102 93.2938 133.514L111.365 141.006C114.804 142.432 116.438 146.368 115.013 149.807C113.941 152.396 111.43 153.965 108.789 153.965" fill="#FFCB03"></path><path d="M237.77 100.549C236.907 100.549 236.031 100.392 235.194 100.039C231.755 98.6137 230.121 94.6778 231.546 91.2389L239.038 73.1548C240.464 69.7289 244.4 68.0944 247.839 69.5066C251.264 70.9319 252.899 74.8677 251.474 78.3067L243.981 96.3908C242.909 98.9798 240.398 100.549 237.757 100.549" fill="#FFCB03"></path><path d="M284.268 202.345C285.419 196.749 286.021 190.956 286.021 185.007C286.021 137.502 247.499 98.9797 200.007 98.9797C152.515 98.9797 113.967 137.502 113.967 185.007C113.967 190.943 114.568 196.736 115.719 202.345H284.281H284.268Z" fill="#FFCB03"></path></svg> 