<svg width="66" height="24" viewBox="0 0 66 24" fill="none" xmlns="http://www.w3.org/2000/svg">
<path d="M21.8493 18.1441C18.1906 18.1441 15.5412 15.5263 15.5412 11.9622C15.5412 8.39813 18.1906 5.78027 21.8808 5.78027C24.8456 5.78027 27.2112 7.54654 27.7789 10.259H25.4764C24.9402 8.74507 23.5525 7.86194 21.8808 7.86194C19.6099 7.86194 17.8752 9.53358 17.8752 11.9622C17.8752 14.3908 19.6415 16.094 21.8808 16.094C23.6155 16.094 25.0033 15.1478 25.508 13.4761H27.8104C27.2427 16.3463 24.8772 18.1441 21.8493 18.1441Z" fill="white"/>
<path d="M37.4933 13.5714C37.4933 13.8238 37.4618 14.0445 37.4302 14.2653H30.8698C30.9329 15.5269 31.9737 16.347 33.2669 16.347C34.15 16.347 34.8439 16 35.2539 15.2746H37.3672C36.7994 17.0724 35.1593 18.1763 33.1092 18.1763C30.2706 18.1763 28.7882 16.0316 28.7882 13.7607C28.7882 11.4582 30.3336 9.31348 33.1723 9.31348C35.7271 9.31348 37.4933 11.0797 37.4933 13.5714ZM35.4116 12.8775C35.2855 11.679 34.2131 11.0167 33.1407 11.0167C32.1314 11.0167 31.0906 11.5844 30.9014 12.8775H35.4116Z" fill="white"/>
<path d="M39.985 5.46484C40.6789 5.46484 41.2151 6.00103 41.2151 6.69492C41.2151 7.42035 40.6789 7.95654 39.985 7.95654C39.2596 7.95654 38.7234 7.42035 38.7234 6.69492C38.7234 5.96949 39.2596 5.46484 39.985 5.46484ZM38.9442 9.50202H41.0258V17.9864H38.9442V9.50202Z" fill="white"/>
<path d="M45.2207 5.52832V10.5748C45.82 9.81782 46.7031 9.31317 48.1224 9.31317C50.488 9.31317 52.2858 11.111 52.2858 13.6973C52.2858 16.2521 50.488 18.1445 48.0594 18.1445C46.64 18.1445 45.7569 17.6083 45.1576 16.8829L44.9369 17.9552H43.1391V5.52832H45.2207ZM45.2207 13.6973C45.2207 15.1166 46.2616 16.3151 47.744 16.3151C49.2579 16.3151 50.2356 15.1166 50.2356 13.6973C50.2356 12.2464 49.2264 11.1425 47.744 11.1425C46.2616 11.1425 45.2207 12.2464 45.2207 13.6973Z" fill="white"/>
<path d="M56.5753 18.1441C54.9667 18.1441 53.4212 17.3556 53.4212 15.6209C53.4212 13.6023 55.1244 12.9084 56.9537 12.9084H59.3193V12.5299C59.3193 11.5206 58.4992 11.0475 57.553 11.0475C56.796 11.0475 55.976 11.3629 55.8183 12.1514H53.8312C54.052 10.1644 55.8183 9.28125 57.6476 9.28125C59.7608 9.28125 61.3694 10.3536 61.3694 12.6245V15.684C61.3694 16.1571 61.5902 16.4409 62.0318 16.4409C62.0948 16.4409 62.1264 16.4409 62.1895 16.4094V18.0495C61.9371 18.081 61.6848 18.1126 61.4325 18.1126C60.5178 18.1126 59.6662 17.8287 59.4454 16.7563C58.8146 17.7341 57.7423 18.1441 56.5753 18.1441ZM57.1745 14.2646C56.3545 14.2646 55.5975 14.5485 55.5975 15.4001C55.5975 16.1886 56.2914 16.504 57.0484 16.504C58.3731 16.504 59.2877 15.684 59.3193 14.517V14.2646H57.1745Z" fill="white"/>
<path d="M65.5958 5.52832V17.9868H63.5142V5.52832H65.5958Z" fill="white"/>
<path d="M10.0532 11.9941C10.0532 6.31686 13.4595 3.88825 13.4595 2.50047C13.4595 0.639584 11.3779 0.734205 11.3779 0.734205C5.10132 0.734205 0.433334 5.90683 0.433334 11.9941C0.433334 18.2391 5.10132 23.2856 11.6617 23.2856C12.7341 23.2856 13.4595 22.4971 13.4595 21.5193C13.4595 20.0369 10.0532 17.5768 10.0532 11.9941Z" fill="white"/>
</svg>
