<svg width="141" height="47" viewBox="0 0 141 47" fill="none" xmlns="http://www.w3.org/2000/svg">
<path d="M46.1267 36.0359C38.2464 36.0359 32.54 30.6338 32.54 23.2792C32.54 15.9245 38.2464 10.5225 46.1946 10.5225C52.5803 10.5225 57.6753 14.1672 58.8981 19.7646H53.939C52.7841 16.6405 49.7951 14.8181 46.1946 14.8181C41.3034 14.8181 37.5671 18.2676 37.5671 23.2792C37.5671 28.2907 41.3714 31.8053 46.1946 31.8053C49.9309 31.8053 52.92 29.8528 54.0069 26.4032H58.9661C57.7433 32.326 52.6483 36.0359 46.1267 36.0359Z" fill="black"/>
<path d="M79.8216 26.6C79.8216 27.1207 79.7537 27.5763 79.6857 28.0319H65.5556C65.6915 30.6353 67.9333 32.3275 70.7185 32.3275C72.6207 32.3275 74.1152 31.6115 74.9983 30.1146H79.5499C78.3271 33.8244 74.7945 36.1024 70.3789 36.1024C64.2649 36.1024 61.072 31.6766 61.072 26.9905C61.072 22.2393 64.4008 17.8135 70.5147 17.8135C76.0173 17.8135 79.8216 21.4582 79.8216 26.6ZM75.338 25.1681C75.0663 22.6949 72.7565 21.3281 70.4468 21.3281C68.2729 21.3281 66.0311 22.4996 65.6236 25.1681H75.338Z" fill="black"/>
<path d="M85.1883 9.87109C86.6828 9.87109 87.8377 10.9775 87.8377 12.4094C87.8377 13.9064 86.6828 15.0128 85.1883 15.0128C83.6258 15.0128 82.4709 13.9064 82.4709 12.4094C82.4709 10.9125 83.6258 9.87109 85.1883 9.87109ZM82.9465 18.202H87.4301V35.7099H82.9465V18.202Z" fill="black"/>
<path d="M96.4653 10.0029V20.4166C97.756 18.8545 99.6581 17.8132 102.715 17.8132C107.81 17.8132 111.682 21.523 111.682 26.86C111.682 32.1319 107.81 36.037 102.579 36.037C99.5223 36.037 97.6201 34.9306 96.3294 33.4336L95.8539 35.6465H91.9817V10.0029H96.4653ZM96.4653 26.86C96.4653 29.7888 98.7071 32.2621 101.9 32.2621C105.161 32.2621 107.267 29.7888 107.267 26.86C107.267 23.8661 105.093 21.5881 101.9 21.5881C98.7071 21.5881 96.4653 23.8661 96.4653 26.86Z" fill="black"/>
<path d="M120.921 36.037C117.456 36.037 114.128 34.4099 114.128 30.8302C114.128 26.6647 117.796 25.2328 121.736 25.2328H126.831V24.4518C126.831 22.3691 125.065 21.3928 123.027 21.3928C121.397 21.3928 119.63 22.0437 119.291 23.6708H115.011C115.486 19.5704 119.291 17.748 123.231 17.748C127.782 17.748 131.247 19.9609 131.247 24.6471V30.9603C131.247 31.9366 131.722 32.5224 132.673 32.5224C132.809 32.5224 132.877 32.5224 133.013 32.4573V35.8417C132.47 35.9068 131.926 35.9719 131.383 35.9719C129.413 35.9719 127.578 35.3861 127.103 33.1732C125.744 35.1909 123.435 36.037 120.921 36.037ZM122.212 28.0315C120.445 28.0315 118.815 28.6173 118.815 30.3746C118.815 32.0017 120.31 32.6526 121.94 32.6526C124.793 32.6526 126.763 30.9603 126.831 28.5522V28.0315H122.212Z" fill="black"/>
<path d="M140.35 10.0029V35.7116H135.866V10.0029H140.35Z" fill="black"/>
<path d="M20.7196 23.3445C20.7196 11.6292 28.0564 6.61761 28.0564 3.75386C28.0564 -0.0861698 23.5728 0.109086 23.5728 0.109086C10.0541 0.109086 0 10.7831 0 23.3445C0 36.2314 10.0541 46.645 24.1842 46.645C26.494 46.645 28.0564 45.0179 28.0564 43.0002C28.0564 39.9412 20.7196 34.8646 20.7196 23.3445Z" fill="#00A096"/>
</svg>
